<svg width="375" height="426" viewBox="0 0 375 426" fill="none" xmlns="http://www.w3.org/2000/svg">
<path d="M0 403.648L9.02632 394.098C18.0526 383.826 36.1053 365.806 54.1579 394.098C72.2106 423.47 90.2632 499.154 108.316 538.258C126.368 576.641 144.421 576.64 162.474 518.976C180.526 461.312 198.579 345.984 216.632 336.434C234.684 326.162 252.737 423.47 270.79 432.48C288.842 441.49 306.895 365.806 324.948 336.434C343 308.142 375.823 355.01 393.876 346C411.928 336.99 424.237 301.561 433.263 283V230.656V0H424.237C415.211 0 397.158 0 379.105 0C361.053 0 343 0 324.948 0C306.895 0 288.842 0 270.79 0C252.737 0 234.684 0 216.632 0C198.579 0 180.526 0 162.474 0C144.421 0 126.368 0 108.316 0C90.2632 0 72.2106 0 54.1579 0C36.1053 0 18.0526 0 9.02632 0H0V403.648Z" fill="#0099FF"/>
</svg>
